<svg width="80" height="80" viewBox="0 0 80 80" fill="none" xmlns="http://www.w3.org/2000/svg">
<path fill-rule="evenodd" clip-rule="evenodd" d="M60.972 51.8119C58.5201 48.982 58.1217 44.563 59.7489 41.191C61.1268 38.3356 61.8993 35.133 61.8993 31.75C61.8993 19.7378 52.1616 10 40.1493 10C28.1371 10 18.3993 19.7378 18.3993 31.75C18.3993 35.0566 19.1372 38.1909 20.4572 40.9972C22.051 44.3851 21.6092 48.8002 19.1298 51.6058C16.0542 55.0864 13.8373 59.3434 12.8108 64.0453C12.104 67.2826 14.8576 70 18.1713 70H61.7502C65.064 70 67.8177 67.2829 67.1109 64.0453C66.1044 59.4358 63.954 55.2535 60.972 51.8119Z" fill="white"/>
</svg>
