<svg width="80" height="80" viewBox="0 0 80 80" fill="none" xmlns="http://www.w3.org/2000/svg">
<g clip-path="url(#clip0_7365_36499)">
<mask id="mask0_7365_36499" style="mask-type:luminance" maskUnits="userSpaceOnUse" x="10" y="10" width="60" height="60">
<path d="M70 10H10V70H70V10Z" fill="white"/>
</mask>
<g mask="url(#mask0_7365_36499)">
<path d="M38.1025 11.5463C39.2063 10.646 40.7908 10.646 41.8945 11.5463L44.2744 13.4873C45.0235 14.0981 46.0207 14.3107 46.9534 14.0586L49.9103 13.2594C51.2834 12.8883 52.7282 13.5323 53.3702 14.8016L54.7673 17.5645C55.2023 18.4243 56.0234 19.0229 56.9749 19.1736L60.0136 19.655C61.4137 19.8769 62.4677 21.0485 62.5403 22.4643L62.7001 25.5814C62.7493 26.5397 63.2543 27.4168 64.0583 27.9408L66.6581 29.6354C67.8419 30.4072 68.3266 31.9008 67.8214 33.2209L66.703 36.1438C66.3607 37.038 66.466 38.0418 66.9859 38.8456L68.6839 41.4695C69.451 42.6554 69.2872 44.2157 68.2903 45.2165L66.0913 47.4242C65.4151 48.1031 65.1038 49.064 65.2538 50.0105L65.7431 53.1002C65.9642 54.4979 65.1785 55.8602 63.8579 56.369L60.9749 57.479C60.0776 57.8246 59.4002 58.5791 59.1533 59.5085L58.355 62.5139C57.9905 63.8867 56.7134 64.8155 55.2953 64.7396L52.2326 64.5758C51.2687 64.5242 50.3389 64.9394 49.7341 65.6915L47.8027 68.0939C46.9105 69.2036 45.3613 69.5333 44.0944 68.8829L41.3686 67.4834C40.5085 67.0421 39.4885 67.0421 38.6285 67.4834L35.9025 68.8829C34.6358 69.5333 33.0866 69.2036 32.1944 68.0939L30.2629 65.6915C29.6582 64.9394 28.7284 64.5242 27.7646 64.5758L24.7019 64.7396C23.2838 64.8155 22.0067 63.8867 21.6421 62.5139L20.8438 59.5085C20.5969 58.5791 19.9196 57.8246 19.0223 57.479L16.1393 56.369C14.8185 55.8602 14.0329 54.4979 14.2542 53.1002L14.7434 50.0105C14.8933 49.064 14.582 48.1031 13.9058 47.4242L11.7067 45.2165C10.7099 44.2157 10.5461 42.6554 11.3133 41.4695L13.011 38.8456C13.5311 38.0418 13.6363 37.038 13.2941 36.1438L12.1755 33.2209C11.6704 31.9008 12.1551 30.4072 13.3392 29.6354L15.939 27.9408C16.7429 27.4168 17.2476 26.5397 17.2968 25.5814L17.4568 22.4643C17.5294 21.0485 18.5832 19.8769 19.9834 19.655L23.0221 19.1736C23.9737 19.0229 24.795 18.4243 25.2298 17.5645L26.627 14.8016C27.2689 13.5323 28.7139 12.8883 30.0869 13.2594L33.0436 14.0586C33.9765 14.3107 34.9737 14.0981 35.7225 13.4873L38.1025 11.5463Z" fill="white"/>
</g>
</g>
<defs>
<clipPath id="clip0_7365_36499">
<rect width="60" height="60" fill="white" transform="translate(10 10)"/>
</clipPath>
</defs>
</svg>
