<svg width="80" height="80" viewBox="0 0 80 80" fill="none" xmlns="http://www.w3.org/2000/svg">
<g clip-path="url(#clip0_7365_36497)">
<mask id="mask0_7365_36497" style="mask-type:luminance" maskUnits="userSpaceOnUse" x="10" y="10" width="60" height="60">
<path d="M70 10H10V70H70V10Z" fill="white"/>
</mask>
<g mask="url(#mask0_7365_36497)">
<path d="M39.3435 10.5539C39.4708 9.81536 40.5292 9.81536 40.6564 10.5539L42.0589 18.6941C42.1708 19.3431 43.0537 19.4549 43.3231 18.8541L46.7017 11.3191C47.0083 10.6355 48.0334 10.8992 47.9734 11.6462L47.3113 19.8801C47.2585 20.5366 48.0859 20.8649 48.496 20.3501L53.6389 13.8937C54.1054 13.3079 55.033 13.8188 54.7894 14.5274L52.1044 22.3376C51.8902 22.9603 52.6102 23.4844 53.1352 23.088L59.719 18.1159C60.3163 17.6648 61.0879 18.3907 60.676 19.0164L56.1367 25.9122C55.7749 26.462 56.3422 27.149 56.9491 26.8958L64.5601 23.7205C65.2507 23.4324 65.818 24.3278 65.2636 24.8311L59.1553 30.3792C58.6684 30.8216 59.0473 31.6284 59.698 31.5344L67.858 30.3552C68.5984 30.2482 68.9257 31.2568 68.2639 31.6063L60.9703 35.4581C60.3889 35.7652 60.5557 36.641 61.2091 36.7121L69.4057 37.6033C70.1494 37.6841 70.2157 38.7425 69.4882 38.9161L61.4677 40.8295C60.8281 40.9822 60.7723 41.872 61.3876 42.1036L69.1054 45.0091C69.8056 45.2728 69.6073 46.3144 68.8594 46.3015L60.616 46.1563C59.9587 46.1446 59.6839 46.9927 60.2224 47.3704L66.9766 52.1077C67.5892 52.5376 67.1386 53.497 66.4174 53.2978L58.4692 51.1033C57.8353 50.9284 57.3586 51.6811 57.7864 52.1812L63.1525 58.4527C63.6394 59.0218 62.9647 59.8387 62.3155 59.4661L55.1617 55.36C54.5911 55.0327 53.9425 55.6432 54.2329 56.2339L57.8737 63.6454C58.204 64.318 57.3478 64.9411 56.8117 64.4188L50.9014 58.6591C50.4304 58.1998 49.6504 58.6294 49.7851 59.2741L51.472 67.3597C51.625 68.0935 50.6407 68.4838 50.2513 67.8442L45.9565 60.7927C45.6139 60.2305 44.752 60.4522 44.7223 61.1101L44.3491 69.3625C44.3155 70.111 43.2652 70.2439 43.0468 69.5272L40.6372 61.6273C40.4449 60.9976 39.555 60.9976 39.3629 61.6273L36.9533 69.5272C36.7347 70.2439 35.6846 70.111 35.6508 69.3625L35.2777 61.1101C35.248 60.4522 34.386 60.2305 34.0436 60.7927L29.7488 67.8442C29.3592 68.4838 28.3751 68.0935 28.5281 67.3597L30.2151 59.2741C30.3495 58.6294 29.5697 58.1998 29.0985 58.6591L23.1885 64.4188C22.6522 64.9411 21.7959 64.318 22.1263 63.6454L25.7672 56.2339C26.0575 55.6432 25.4088 55.0327 24.8384 55.36L17.6844 59.4661C17.0353 59.8387 16.3607 59.0218 16.8475 58.4527L22.2137 52.1812C22.6415 51.6811 22.1646 50.9284 21.531 51.1033L13.5825 53.2978C12.8614 53.497 12.4107 52.5376 13.0235 52.1077L19.7777 47.3704C20.3162 46.9927 20.0412 46.1446 19.384 46.1563L11.1406 46.3015C10.3927 46.3144 10.1943 45.2728 10.8946 45.0091L18.6124 42.1036C19.2277 41.872 19.1718 40.9822 18.5324 40.8295L10.5119 38.9161C9.78426 38.7425 9.85072 37.6841 10.5944 37.6033L18.791 36.7121C19.4445 36.641 19.6112 35.7652 19.0297 35.4581L11.7362 31.6063C11.0744 31.2568 11.4015 30.2482 12.1419 30.3552L20.3022 31.5344C20.9527 31.6284 21.3317 30.8216 20.8446 30.3792L14.7363 24.8311C14.1821 24.3278 14.7492 23.4324 15.4398 23.7205L23.051 26.8958C23.6579 27.149 24.2251 26.462 23.8632 25.9122L19.3239 19.0164C18.912 18.3907 19.6836 17.6648 20.2809 18.1159L26.8649 23.088C27.3898 23.4844 28.1097 22.9603 27.8957 22.3376L25.2106 14.5274C24.967 13.8188 25.8945 13.3079 26.3611 13.8937L31.504 20.3501C31.9141 20.8649 32.7415 20.5366 32.6887 19.8801L32.0266 11.6462C31.9665 10.8992 32.9917 10.6354 33.2982 11.3191L36.6771 18.8541C36.9464 19.4549 37.8294 19.3431 37.9412 18.6941L39.3435 10.5539Z" fill="white"/>
</g>
</g>
<defs>
<clipPath id="clip0_7365_36497">
<rect width="60" height="60" fill="white" transform="translate(10 10)"/>
</clipPath>
</defs>
</svg>
