<svg width="80" height="80" viewBox="0 0 80 80" fill="none" xmlns="http://www.w3.org/2000/svg">
<g clip-path="url(#clip0_7365_36496)">
<mask id="mask0_7365_36496" style="mask-type:luminance" maskUnits="userSpaceOnUse" x="10" y="10" width="60" height="60">
<path d="M70 10H10V70H70V10Z" fill="white"/>
</mask>
<g mask="url(#mask0_7365_36496)">
<path fill-rule="evenodd" clip-rule="evenodd" d="M10 10C18.2843 10 25 16.7157 25 25C16.7157 25 10 18.2843 10 10ZM40 10C31.7157 10 25 16.7157 25 25C16.7157 25 10 31.7157 10 40C10 48.2842 16.7157 55 25 55C16.7157 55 10 61.7158 10 70C18.2843 70 25 63.2842 25 55C25 63.2842 31.7157 70 40 70C48.2842 70 55 63.2842 55 55C55 63.2842 61.7158 70 70 70C70 61.7158 63.2842 55 55 55C63.2842 55 70 48.2842 70 40C70 31.7157 63.2842 25 55 25C63.2842 25 70 18.2843 70 10C61.7158 10 55 16.7157 55 25C55 16.7157 48.2842 10 40 10ZM55 55C55 46.7158 48.2842 40 40 40C40 48.2842 46.7158 55 55 55ZM40 40C48.2842 40 55 33.2843 55 25C55 33.2843 61.7158 40 70 40C61.7158 40 55 46.7158 55 55C46.7158 55 40 61.7158 40 70C40 61.7158 33.2843 55 25 55C33.2843 55 40 48.2842 40 40ZM40 40C31.7157 40 25 46.7158 25 55C25 46.7158 18.2843 40 10 40C18.2843 40 25 33.2843 25 25C25 33.2843 31.7157 40 40 40ZM40 40C40 31.7157 46.7158 25 55 25C46.7158 25 40 18.2843 40 10C40 18.2843 33.2843 25 25 25C33.2843 25 40 31.7157 40 40Z" fill="white"/>
</g>
</g>
<defs>
<clipPath id="clip0_7365_36496">
<rect width="60" height="60" fill="white" transform="translate(10 10)"/>
</clipPath>
</defs>
</svg>
