<svg width="80" height="80" viewBox="0 0 80 80" fill="none" xmlns="http://www.w3.org/2000/svg">
<g clip-path="url(#clip0_7365_36503)">
<mask id="mask0_7365_36503" style="mask-type:luminance" maskUnits="userSpaceOnUse" x="10" y="10" width="60" height="60">
<path d="M70 10H10V70H70V10Z" fill="white"/>
</mask>
<g mask="url(#mask0_7365_36503)">
<path fill-rule="evenodd" clip-rule="evenodd" d="M40 70C56.5684 70 70 56.5684 70 40C70 23.4315 56.5684 10 40 10C23.4315 10 10 23.4315 10 40C10 56.5684 23.4315 70 40 70ZM40 66.4C54.5803 66.4 66.4 54.5803 66.4 40C66.4 25.4197 54.5803 13.6 40 13.6C25.4197 13.6 13.6 25.4197 13.6 40C13.6 54.5803 25.4197 66.4 40 66.4ZM40 62.8C52.5922 62.8 62.8 52.5922 62.8 40C62.8 27.4079 52.5922 17.2 40 17.2C27.4079 17.2 17.2 27.4079 17.2 40C17.2 52.5922 27.4079 62.8 40 62.8ZM40 59.2C50.6038 59.2 59.2 50.6038 59.2 40C59.2 29.3961 50.6038 20.8 40 20.8C29.3961 20.8 20.8 29.3961 20.8 40C20.8 50.6038 29.3961 59.2 40 59.2ZM55.6 40C55.6 48.6157 48.6157 55.6 40 55.6C31.3844 55.6 24.4 48.6157 24.4 40C24.4 31.3844 31.3844 24.4 40 24.4C48.6157 24.4 55.6 31.3844 55.6 40ZM52 40C52 46.6273 46.6273 52 40 52C33.3726 52 28 46.6273 28 40C28 33.3726 33.3726 28 40 28C46.6273 28 52 33.3726 52 40Z" fill="white"/>
</g>
</g>
<defs>
<clipPath id="clip0_7365_36503">
<rect width="60" height="60" fill="white" transform="translate(10 10)"/>
</clipPath>
</defs>
</svg>
