<svg width="80" height="80" viewBox="0 0 80 80" fill="none" xmlns="http://www.w3.org/2000/svg">
<g clip-path="url(#clip0_7365_36501)">
<path d="M61 48.8488C61 60.5302 51.598 70 40 70C28.402 70 19 60.5302 19 48.8488C19 37.7918 29.7518 24.4619 38.5338 12.0863C39.2537 11.0718 40.7614 11.0616 41.4922 12.0683C50.6053 24.6211 61 37.7774 61 48.8488Z" fill="white"/>
<path d="M24 22.7911C24 26.7724 20.866 30 17 30C13.134 30 10 26.7724 10 22.7911C10 19.0225 13.5839 14.4794 16.5113 10.2614C16.7512 9.91564 17.2538 9.91217 17.4974 10.2553C20.5351 14.5336 24 19.0176 24 22.7911Z" fill="white"/>
</g>
<defs>
<clipPath id="clip0_7365_36501">
<rect width="60" height="60" fill="white" transform="translate(10 10)"/>
</clipPath>
</defs>
</svg>
