<svg width="80" height="80" viewBox="0 0 80 80" fill="none" xmlns="http://www.w3.org/2000/svg">
<g clip-path="url(#clip0_7365_36502)">
<g clip-path="url(#clip1_7365_36502)">
<mask id="mask0_7365_36502" style="mask-type:luminance" maskUnits="userSpaceOnUse" x="-1" y="-1" width="82" height="82">
<path d="M80.9811 29.0195L29.0195 -0.980469L-0.980471 50.9811L50.9811 80.9811L80.9811 29.0195Z" fill="white"/>
</mask>
<g mask="url(#mask0_7365_36502)">
<path fill-rule="evenodd" clip-rule="evenodd" d="M61.8595 29.9616C62.6412 29.3624 63.296 28.6141 63.7866 27.7601C64.528 26.4773 64.8727 25.0037 64.7772 23.5251C64.6816 22.0466 64.1505 20.6296 63.2502 19.4528C62.35 18.2761 61.1212 17.3924 59.7191 16.9133C58.3173 16.4344 56.8046 16.3814 55.3725 16.7613L53.1193 17.28L52.4492 15.0795C51.9332 13.1584 50.6752 11.521 48.9519 10.5275C47.2287 9.53399 45.1813 9.26572 43.2603 9.78172C41.3392 10.2977 39.7018 11.5557 38.7083 13.279C37.7148 15.0022 37.4465 17.0496 37.9625 18.9706L42.1026 34.8877C42.137 35.0204 42.1976 35.145 42.2807 35.2541C42.3637 35.3632 42.4677 35.4547 42.5865 35.5233C42.7052 35.5919 42.8365 35.6362 42.9724 35.6535C43.1085 35.6709 43.2466 35.661 43.3788 35.6245L59.2335 31.2514C60.1855 30.9993 61.0781 30.5609 61.8595 29.9616ZM18.141 50.0389C17.3594 50.6382 16.7045 51.3863 16.214 52.2404C15.4725 53.5232 15.1278 54.997 15.2233 56.4755C15.3188 57.9541 15.8502 59.3711 16.7505 60.5477C17.6506 61.7246 18.8793 62.6082 20.2814 63.0872C21.6834 63.5662 23.1959 63.6191 24.6279 63.2394L26.8813 62.7207L27.5515 64.921C28.0674 66.8422 29.3255 68.4796 31.0486 69.4731C32.772 70.4667 34.8193 70.7348 36.7404 70.219C38.6613 69.703 40.2987 68.4448 41.2922 66.7217C42.2858 64.9983 42.5539 62.951 42.0381 61.0299L37.8979 45.113C37.8637 44.9803 37.803 44.8555 37.7198 44.7465C37.6369 44.6374 37.5329 44.5458 37.4142 44.4772C37.2954 44.4087 37.1642 44.3644 37.0281 44.3472C36.8921 44.3296 36.7539 44.3396 36.6217 44.3762L20.7672 48.7492C19.8151 49.0014 18.9225 49.4397 18.141 50.0389ZM52.2402 63.7869C51.3862 63.2962 50.6382 62.6413 50.0388 61.8597C49.4396 61.0784 49.0014 60.1856 48.7491 59.2335L44.376 43.3791C44.3395 43.2468 44.3296 43.1085 44.347 42.9727C44.3644 42.8365 44.4085 42.7054 44.4772 42.5864C44.5457 42.4678 44.6373 42.3638 44.7465 42.2809C44.8555 42.1977 44.9801 42.1372 45.1129 42.1028L61.0298 37.9627C62.951 37.4467 64.9983 37.7149 66.7217 38.7085C68.4448 39.702 69.7029 41.3394 70.2188 43.2604C70.7348 45.1814 70.4665 47.2288 69.473 48.9521C68.4795 50.6753 66.8421 51.9333 64.9209 52.4493L62.7207 53.1193L63.2393 55.3728C63.619 56.8048 63.5662 58.3172 63.0871 59.7194C62.6081 61.1215 61.7245 62.35 60.5477 63.2502C59.3711 64.1505 57.954 64.682 56.4754 64.7775C54.9969 64.873 53.5231 64.5282 52.2402 63.7869ZM29.9618 18.1408C29.3625 17.3593 28.6142 16.7043 27.7602 16.2138C26.4775 15.4724 25.0038 15.1277 23.5253 15.2232C22.0467 15.3187 20.6296 15.8501 19.4529 16.7503C18.2761 17.6505 17.3925 18.8792 16.9134 20.2812C16.4344 21.6832 16.3815 23.1958 16.7614 24.6278L17.28 26.8812L15.0796 27.5512C13.1584 28.0674 11.5211 29.3252 10.5275 31.0486C9.53408 32.7717 9.26586 34.819 9.78179 36.7402C10.2977 38.6613 11.5557 40.2987 13.279 41.2922C15.0022 42.2858 17.0496 42.554 18.9708 42.0378L34.8877 37.8979C35.0205 37.8634 35.145 37.803 35.2541 37.7198C35.3633 37.6366 35.4547 37.5328 35.5234 37.414C35.5919 37.2952 35.6362 37.164 35.6536 37.028C35.671 36.8919 35.6611 36.7538 35.6246 36.6216L31.2515 20.767C30.9994 19.815 30.561 18.9223 29.9618 18.1408Z" fill="white"/>
</g>
</g>
</g>
<defs>
<clipPath id="clip0_7365_36502">
<rect width="80" height="80" fill="white"/>
</clipPath>
<clipPath id="clip1_7365_36502">
<rect width="60" height="60" fill="white" transform="translate(29.0195 -0.980469) rotate(30)"/>
</clipPath>
</defs>
</svg>
