<svg width="60" height="60" viewBox="0 0 60 60" fill="none" xmlns="http://www.w3.org/2000/svg">
<path fill-rule="evenodd" clip-rule="evenodd" d="M21.966 12.4929C22.1027 12.1927 22.4021 12 22.732 12H38.0503C38.3784 12 38.6766 12.1907 38.8143 12.4885C38.8644 12.5969 39.0876 13.1948 39.3669 13.9481C39.6581 14.7334 40.0353 15.757 40.4114 16.78C40.8398 17.9449 41.266 19.1065 41.5636 19.9177C41.7898 20.5341 41.9417 20.9482 41.9639 21.0074C44.281 27.1987 41.5007 34.241 35.4395 37.0807C29.0817 40.0595 21.5354 37.28 18.5825 30.8845C17.2129 27.9185 17.0326 24.5544 18.0433 21.4828L18.0433 21.4827C18.0931 21.3315 18.367 20.6928 18.71 19.9017C19.0675 19.077 19.5329 18.0131 19.9994 16.9505C20.9305 14.8292 21.8718 12.6995 21.966 12.4929ZM23.2787 13.6835C22.9321 14.4659 22.2361 16.0433 21.5409 17.6271C21.0748 18.6889 20.6106 19.7502 20.2546 20.5713C20.0765 20.9821 19.9261 21.3313 19.8164 21.5899C19.7614 21.7194 19.7175 21.8242 19.6857 21.9017C19.662 21.9595 19.6497 21.9908 19.6447 22.0036C19.6419 22.0106 19.6414 22.012 19.6424 22.009C18.7642 24.6783 18.921 27.602 20.1109 30.1788L20.1109 30.1788C22.6757 35.7336 29.2195 38.1358 34.7253 35.5563C39.9794 33.0946 42.4016 26.9798 40.3872 21.5975L40.3872 21.5974C40.3637 21.5347 40.2057 21.1041 39.9724 20.4681C39.6741 19.6551 39.2526 18.5063 38.8314 17.361C38.4553 16.3383 38.0788 15.3165 37.7884 14.5334C37.6649 14.2001 37.5572 13.9109 37.4719 13.6835H23.2787Z" fill="#592F00"/>
<path d="M21.5173 23.1538C20.6308 23.2103 19.5876 23.4118 18.3937 23.7292C18.0537 26.019 18.3489 28.409 19.339 30.5519C22.0979 36.527 29.1487 39.0851 35.0805 36.3059C39.2316 34.3611 41.7185 30.2995 41.9032 25.9898L41.8216 26.0306C41.8216 26.0306 36.1393 28.4424 32.985 28.2912C27.2969 28.0183 27.7239 22.7582 21.5179 23.1535L21.5173 23.1538Z" fill="#FAA41A"/>
<path fill-rule="evenodd" clip-rule="evenodd" d="M28.2194 25.0451C29.5203 26.2756 30.6418 27.3365 33.0252 27.4508C34.4336 27.5184 36.5112 27.0015 38.3282 26.4167C39.2171 26.1307 40.0107 25.8395 40.5823 25.6198C40.8678 25.51 41.0971 25.4184 41.2543 25.3545C41.3328 25.3226 41.3933 25.2976 41.4337 25.2808C41.4484 25.2747 41.4604 25.2697 41.4696 25.2658L41.5266 25.2373C41.7933 25.104 42.1106 25.1217 42.3608 25.2838C42.611 25.446 42.7568 25.7284 42.744 26.0262C42.5467 30.6318 39.888 34.9835 35.4375 37.0686C29.0836 40.0455 21.5295 37.3045 18.5747 30.9051C17.5116 28.6042 17.1985 26.0474 17.561 23.606C17.6103 23.2736 17.8526 23.0024 18.1774 22.9161C19.3893 22.5939 20.4857 22.3784 21.4452 22.3153C21.4516 22.3148 21.458 22.3143 21.4643 22.3139C23.1429 22.207 24.4259 22.4816 25.4917 22.9925C26.5406 23.4953 27.328 24.2051 28.0227 24.8594C28.0888 24.9217 28.1543 24.9836 28.2194 25.0451ZM40.9246 27.2909C40.3615 27.5034 39.6404 27.7629 38.8439 28.0193C37.0312 28.6027 34.6905 29.2161 32.9446 29.1324L32.9446 29.1324C29.9294 28.9877 28.4072 27.5438 27.09 26.2945C27.0156 26.2239 26.9418 26.154 26.8685 26.0849C26.1832 25.4395 25.5582 24.8913 24.764 24.5106C23.9897 24.1394 23.0037 23.9051 21.5884 23.9929C21.5825 23.9934 21.5767 23.9938 21.5708 23.9942C20.8916 24.0376 20.0891 24.1761 19.1578 24.4032C18.9608 26.3697 19.2644 28.3841 20.103 30.1992L20.1031 30.1994C22.6662 35.7504 29.2137 38.1255 34.7233 35.5441L34.7233 35.5441C38.1437 33.9416 40.3524 30.7879 40.9246 27.2909Z" fill="#592F00"/>
<path d="M22.5876 28.1203C23.128 28.1203 23.566 27.6787 23.566 27.1339C23.566 26.5891 23.128 26.1475 22.5876 26.1475C22.0472 26.1475 21.6089 26.5891 21.6089 27.1339C21.6089 27.6787 22.0472 28.1203 22.5876 28.1203Z" fill="#F2F2F1"/>
<path d="M31.5675 35.1938C32.0854 35.1938 32.5054 34.771 32.5054 34.2494C32.5054 33.7279 32.0854 33.3052 31.5675 33.3052C31.0496 33.3052 30.6299 33.7279 30.6299 34.2494C30.6299 34.771 31.0496 35.1938 31.5675 35.1938Z" fill="#F2F2F1"/>
<path d="M25.7099 33.5259C26.1827 33.5259 26.5659 33.1396 26.5659 32.6631C26.5659 32.1866 26.1827 31.8003 25.7099 31.8003C25.237 31.8003 24.8535 32.1866 24.8535 32.6631C24.8535 33.1396 25.237 33.5259 25.7099 33.5259Z" fill="#F2F2F1"/>
<path d="M37.1679 31.6284C37.6408 31.6284 38.0239 31.2421 38.0239 30.7656C38.0239 30.2891 37.6408 29.9028 37.1679 29.9028C36.695 29.9028 36.3115 30.2891 36.3115 30.7656C36.3115 31.2421 36.695 31.6284 37.1679 31.6284Z" fill="#F2F2F1"/>
<path d="M29.7013 31.4296C30.2192 31.4296 30.6389 31.0068 30.6389 30.4853C30.6389 29.9637 30.2192 29.541 29.7013 29.541C29.1834 29.541 28.7637 29.9637 28.7637 30.4853C28.7637 31.0068 29.1834 31.4296 29.7013 31.4296Z" fill="#F2F2F1"/>
<path fill-rule="evenodd" clip-rule="evenodd" d="M27.6206 37.3666C27.6206 36.9018 27.9975 36.5249 28.4623 36.5249H31.7135C32.1783 36.5249 32.5552 36.9018 32.5552 37.3666V47.1584C32.5552 47.6232 32.1783 48.0001 31.7135 48.0001H28.4623C27.9975 48.0001 27.6206 47.6232 27.6206 47.1584V37.3666ZM29.3041 38.2084V46.3166H30.8717V38.2084H29.3041Z" fill="#592F00"/>
<path fill-rule="evenodd" clip-rule="evenodd" d="M21.3262 47.1562C21.3262 46.6913 21.703 46.3145 22.1679 46.3145H38.0089C38.4738 46.3145 38.8507 46.6913 38.8507 47.1562C38.8507 47.6211 38.4738 47.9979 38.0089 47.9979H22.1679C21.703 47.9979 21.3262 47.6211 21.3262 47.1562Z" fill="#592F00"/>
</svg>
