<svg width="39" height="39" viewBox="0 0 39 39" fill="none" xmlns="http://www.w3.org/2000/svg">
<path fill-rule="evenodd" clip-rule="evenodd" d="M4.77676 14.2695C4.58498 14.354 4.54231 14.4286 4.52733 14.4564C4.5009 14.5055 4.46334 14.6153 4.46746 14.8433C4.47163 15.0745 4.51656 15.353 4.59314 15.6954C4.61542 15.795 4.65215 15.9465 4.69181 16.1101C4.72748 16.2572 4.76553 16.4142 4.79757 16.552C5.98001 17.1801 6.8279 18.3001 7.06019 19.6228L8.02251 25.1026C8.10333 25.5628 8.16952 26.0163 8.23527 26.4668C8.36149 27.3315 8.48611 28.1853 8.70953 29.055C9.03817 30.3344 9.51416 31.3128 10.2648 31.9174C10.7923 32.3365 11.4854 32.5982 12.6779 32.7385C13.9008 32.8824 15.4919 32.8844 17.755 32.8844H21.1124C21.7851 32.8844 22.3304 33.4297 22.3304 34.1023C22.3304 34.775 21.7851 35.3203 21.1124 35.3203H17.6777C15.5097 35.3203 13.7751 35.3203 12.3932 35.1577C10.9664 34.9898 9.76779 34.6351 8.74545 33.8214L8.74081 33.8177C7.37988 32.7236 6.72769 31.1305 6.35023 29.6611C6.09566 28.6701 5.93454 27.5754 5.79707 26.6414C5.73656 26.2303 5.68063 25.8503 5.62333 25.524V25.524L4.66101 20.0442C4.55995 19.4688 4.16895 18.9447 3.56896 18.66C3.01579 18.3974 2.59349 17.8925 2.46169 17.2672C2.42142 17.0761 2.38667 16.9366 2.34734 16.7787C2.3104 16.6304 2.26941 16.4659 2.21599 16.2271C2.12845 15.8358 2.0406 15.3668 2.03195 14.8873C2.02325 14.4045 2.09283 13.8402 2.38211 13.3024C2.68285 12.7434 3.16446 12.3182 3.79412 12.0406C4.16839 11.8755 4.55074 11.821 4.90803 11.7966C5.24998 11.7733 5.66585 11.7733 6.14005 11.7733L12.1808 11.7733C12.8535 11.7733 13.3988 12.3186 13.3988 12.9912C13.3988 13.6639 12.8535 14.2092 12.1808 14.2092H6.17873C5.65446 14.2092 5.32274 14.2098 5.07381 14.2268C4.84225 14.2426 4.77676 14.2695 4.77676 14.2695ZM33.9033 14.2268C33.6543 14.2098 33.3226 14.2092 32.7983 14.2092H18.6766C18.0039 14.2092 17.4586 13.6639 17.4586 12.9912C17.4586 12.3186 18.0039 11.7733 18.6766 11.7733L32.8369 11.7733C33.3112 11.7733 33.7271 11.7733 34.069 11.7966C34.4263 11.821 34.8087 11.8755 35.183 12.0406V12.0406C35.8126 12.3182 36.2942 12.7434 36.5949 13.3024C36.8842 13.8402 36.9538 14.4045 36.9451 14.8872C36.9365 15.3668 36.8486 15.8358 36.7611 16.2271C36.7077 16.466 36.6667 16.6305 36.6297 16.7788C36.5904 16.9366 36.5557 17.076 36.5154 17.2671C36.3835 17.8926 35.9612 18.3974 35.4085 18.6599C35.0641 18.8233 34.787 19.0671 34.5957 19.3528C34.2214 19.9116 33.4649 20.0613 32.906 19.6869C32.3471 19.3126 32.1975 18.5561 32.5718 17.9972C32.9737 17.3972 33.525 16.8996 34.1795 16.552C34.2116 16.4142 34.2496 16.2573 34.2853 16.1101C34.3249 15.9465 34.3617 15.795 34.3839 15.6954C34.4605 15.353 34.5055 15.0745 34.5096 14.8433C34.5137 14.6153 34.4762 14.5056 34.4497 14.4564C34.4347 14.4286 34.3921 14.354 34.2003 14.2695C34.2003 14.2695 34.1355 14.2427 33.9033 14.2268Z" fill="black"/>
<path fill-rule="evenodd" clip-rule="evenodd" d="M30.0441 21.5169C30.7167 21.5169 31.262 22.0622 31.262 22.7348V27.2006H35.7278C36.4005 27.2006 36.9458 27.7459 36.9458 28.4186C36.9458 29.0912 36.4005 29.6365 35.7278 29.6365H31.262V34.1023C31.262 34.775 30.7167 35.3203 30.0441 35.3203C29.3714 35.3203 28.8261 34.775 28.8261 34.1023V29.6365H24.3603C23.6877 29.6365 23.1424 29.0912 23.1424 28.4186C23.1424 27.7459 23.6877 27.2006 24.3603 27.2006H28.8261V22.7348C28.8261 22.0622 29.3714 21.5169 30.0441 21.5169Z" fill="black"/>
<path fill-rule="evenodd" clip-rule="evenodd" d="M16.7288 3.75574C17.3451 4.02536 17.6261 4.7435 17.3565 5.35975L11.6727 18.3512C11.4031 18.9675 10.685 19.2485 10.0687 18.9789C9.45246 18.7092 9.17145 17.9911 9.44106 17.3749L15.1248 4.3834C15.3944 3.76714 16.1126 3.48613 16.7288 3.75574ZM23.8156 3.78221C24.4173 3.48139 25.1489 3.72525 25.4497 4.32689L29.5095 12.4466C29.8103 13.0482 29.5665 13.7798 28.9648 14.0806C28.3632 14.3814 27.6316 14.1376 27.3308 13.5359L23.2709 5.41626C22.9701 4.81462 23.214 4.08303 23.8156 3.78221Z" fill="black"/>
</svg>
