<svg width="52" height="29" viewBox="0 0 52 29" fill="none" xmlns="http://www.w3.org/2000/svg">
<path d="M50.3941 14.976C50.4901 14.944 50.6341 14.928 50.8261 14.928C51.3701 14.928 51.6421 15.28 51.6421 15.984C51.6421 16.368 51.5541 16.696 51.3781 16.968C51.2181 17.224 50.9621 17.384 50.6101 17.448C49.1541 17.72 47.7221 18.024 46.3141 18.36L46.2421 18.936C45.7941 22.088 44.8981 24.416 43.5541 25.92C42.2261 27.44 40.5621 28.2 38.5621 28.2C37.2341 28.2 36.2021 27.872 35.4661 27.216C34.7461 26.576 34.3861 25.752 34.3861 24.744C34.3861 23.064 35.1381 21.568 36.6421 20.256C38.1461 18.944 40.4261 17.784 43.4821 16.776L43.9621 13.392C44.0261 13.008 44.1061 12.496 44.2021 11.856C43.4501 13.84 42.4901 15.32 41.3221 16.296C40.1541 17.272 38.8501 17.76 37.4101 17.76C36.0341 17.76 34.9861 17.344 34.2661 16.512C33.5461 15.664 33.1861 14.576 33.1861 13.248C33.1861 12.656 33.2501 12.008 33.3781 11.304C33.5061 10.584 33.7061 9.616 33.9781 8.4C34.2181 7.296 34.3941 6.416 34.5061 5.76C34.6341 5.104 34.6981 4.52 34.6981 4.008C34.6981 3.24 34.4021 2.856 33.8101 2.856C33.3461 2.856 32.7941 3.088 32.1541 3.552C31.5301 4 30.8661 4.696 30.1621 5.64C29.9381 5.944 29.6901 6.096 29.4181 6.096C29.1941 6.096 28.9941 5.992 28.8181 5.784C28.6581 5.56 28.5781 5.312 28.5781 5.04C28.5781 4.544 28.8021 3.984 29.2501 3.36C30.8821 1.12 32.7941 0 34.9861 0C35.9621 0 36.7221 0.296 37.2661 0.888C37.8261 1.48 38.1061 2.352 38.1061 3.504C38.1061 4.336 38.0261 5.192 37.8661 6.072C37.7221 6.936 37.4981 8.04 37.1941 9.384C37.0021 10.184 36.8581 10.832 36.7621 11.328C36.6661 11.808 36.6181 12.208 36.6181 12.528C36.6181 13.344 36.7621 13.928 37.0501 14.28C37.3381 14.632 37.8421 14.808 38.5621 14.808C39.4261 14.808 40.3061 14.336 41.2021 13.392C42.1141 12.432 42.9301 10.984 43.6501 9.048C44.3861 7.112 44.9141 4.744 45.2341 1.944C45.3141 1.24 45.4981 0.743999 45.7861 0.455999C46.0741 0.151999 46.4901 0 47.0341 0C48.1541 0 48.7141 0.56 48.7141 1.68C48.7141 1.872 48.7061 2.024 48.6901 2.136C48.3541 4.52 48.0421 6.672 47.7541 8.592C47.5941 9.744 47.4181 10.928 47.2261 12.144C47.0501 13.36 46.8741 14.592 46.6981 15.84C47.8661 15.52 49.0981 15.232 50.3941 14.976ZM43.1221 19.296C39.2501 20.64 37.3141 22.272 37.3141 24.192C37.3141 24.64 37.4501 25.008 37.7221 25.296C38.0101 25.6 38.4101 25.752 38.9221 25.752C41.1461 25.752 42.5381 23.656 43.0981 19.464L43.1221 19.296Z" fill="white"/>
<path d="M5.592 20.472C5 20.472 4.576 20.344 4.32 20.088C4.064 19.816 3.936 19.312 3.936 18.576C3.936 18.08 3.984 17.448 4.08 16.68C4.192 15.896 4.368 14.824 4.608 13.464C5.024 10.952 5.352 8.776 5.592 6.936C5.736 5.784 5.808 4.824 5.808 4.056C5.808 3.336 5.544 2.976 5.016 2.976C4.6 2.976 4.096 3.192 3.504 3.624C2.928 4.04 2.288 4.712 1.584 5.64C1.36 5.944 1.112 6.096 0.84 6.096C0.616 6.096 0.416 5.992 0.24 5.784C0.08 5.56 0 5.312 0 5.04C0 4.784 0.048 4.528 0.144 4.272C0.256 4 0.432 3.696 0.672 3.36C1.44 2.288 2.296 1.464 3.24 0.888C4.184 0.296 5.128 0 6.072 0C6.952 0 7.624 0.28 8.088 0.84C8.568 1.4 8.808 2.216 8.808 3.288C8.808 3.72 8.768 4.232 8.688 4.824C8.608 5.4 8.536 5.872 8.472 6.24C8.408 6.608 8.36 6.864 8.328 7.008C9.24 4.4 10.264 2.584 11.4 1.56C12.536 0.52 13.784 0 15.144 0C16.184 0 17 0.368 17.592 1.104C18.2 1.84 18.504 2.88 18.504 4.224C18.504 4.752 18.432 5.408 18.288 6.192C19.088 3.984 20.024 2.4 21.096 1.44C22.168 0.48 23.4 0 24.792 0C25.912 0 26.768 0.36 27.36 1.08C27.968 1.8 28.272 2.808 28.272 4.104C28.272 4.808 28.168 5.664 27.96 6.672L26.496 13.536C26.336 14.336 26.256 15.024 26.256 15.6C26.256 16.272 26.408 16.776 26.712 17.112C27.032 17.448 27.472 17.616 28.032 17.616C28.56 17.616 29.072 17.44 29.568 17.088C30.08 16.736 30.68 16.152 31.368 15.336C31.56 15.112 31.776 15 32.016 15C32.224 15 32.384 15.096 32.496 15.288C32.624 15.48 32.688 15.744 32.688 16.08C32.688 16.704 32.536 17.2 32.232 17.568C31.4 18.576 30.576 19.312 29.76 19.776C28.944 20.24 28.088 20.472 27.192 20.472C25.832 20.472 24.768 20.072 24 19.272C23.232 18.456 22.848 17.368 22.848 16.008C22.848 15.064 23.04 13.696 23.424 11.904L24.384 7.512C24.416 7.368 24.472 7.112 24.552 6.744C24.632 6.376 24.696 6.032 24.744 5.712C24.792 5.376 24.816 5.048 24.816 4.728C24.816 4.168 24.704 3.752 24.48 3.48C24.272 3.192 23.968 3.048 23.568 3.048C22.816 3.048 22.024 3.536 21.192 4.512C20.376 5.472 19.592 7.072 18.84 9.312C18.104 11.552 17.504 14.464 17.04 18.048C16.928 19.008 16.728 19.656 16.44 19.992C16.168 20.312 15.72 20.472 15.096 20.472C14.552 20.472 14.152 20.344 13.896 20.088C13.656 19.832 13.536 19.352 13.536 18.648C13.536 17.992 13.624 17.136 13.8 16.08C13.976 15.008 14.2 13.752 14.472 12.312C15.208 8.44 15.576 5.944 15.576 4.824C15.576 4.216 15.456 3.768 15.216 3.48C14.992 3.192 14.648 3.048 14.184 3.048C13.4 3.048 12.592 3.496 11.76 4.392C10.928 5.272 10.112 6.848 9.312 9.12C8.528 11.376 7.872 14.432 7.344 18.288C7.232 19.104 7.064 19.672 6.84 19.992C6.632 20.312 6.216 20.472 5.592 20.472Z" fill="white"/>
</svg>
