<svg width="64" height="26" viewBox="0 0 64 26" fill="none" xmlns="http://www.w3.org/2000/svg">
<g clip-path="url(#clip0_7268_66876)">
<path d="M3.20583 16.3072C0.499834 16.3072 0 15.4945 0 12.8832V9.50245C0 6.89121 0.499834 6.07844 3.20583 6.07844H8.04906C10.7551 6.07844 11.2549 6.89121 11.2549 9.50245V16.3072H3.20583ZM4.01591 12.3039C4.01591 12.7622 4.16241 13.0129 4.69672 13.0129H7.23898V10.0645C7.23898 9.64944 7.13557 9.3814 6.67882 9.3814H4.55022C4.09347 9.3814 4.01591 9.64944 4.01591 10.0645V12.3039ZM13.5128 7.40135C13.5128 6.06979 14.4866 5.38672 15.5638 5.38672C16.641 5.38672 17.6148 6.09573 17.6148 7.40135V12.6498H18.2957C19.5539 12.6498 19.933 13.6268 19.933 14.4569C19.933 15.287 19.5366 16.264 18.2957 16.264H17.6148V24.8759H13.5214V7.40135H13.5128Z" fill="#F34B65"/>
<path d="M24.3635 7.44458V7.35812C24.3635 6.06979 25.4149 5.50777 26.5179 5.53371C27.5952 5.551 28.5431 6.15626 28.5431 7.35812V7.44458C28.5431 7.96337 28.5 8.46487 28.4397 8.94043C31.3784 9.19118 33.4208 11.1626 33.1968 15.2091H29.1636C29.3532 13.3847 28.7069 12.2434 27.3883 12.0359C26.1646 14.111 24.1825 15.3129 22.1315 15.4167C21.0542 15.4772 20.3131 14.8979 20.1235 14.111C19.8994 13.1599 20.3476 12.2866 21.2438 12.0791C23.3293 11.6035 24.3635 9.98665 24.3635 7.45323V7.44458ZM30.1977 24.8759C29.0516 24.8759 28.4052 23.5444 28.4052 22.0572V21.8064C28.4052 20.3106 29.0516 19.3595 30.1977 19.3595H36.5319V18.8234C36.5319 18.5726 36.4974 18.4948 36.3336 18.4948H29.2412C28.75 18.4948 28.5517 17.8895 28.5517 17.267C28.5517 16.6877 28.7672 16.0651 29.2412 16.0651H37.5574C38.6777 16.0651 39.0913 16.6012 39.0913 18.2441V21.5643H31.3439C31.1543 21.5643 31.0681 21.7545 31.0681 21.962V22.0226C31.0681 22.2301 31.1543 22.4203 31.3439 22.4203H38.7035C39.2034 22.4203 39.4188 23.0602 39.4188 23.6827C39.4188 24.262 39.2206 24.8846 38.7035 24.8846H30.1977V24.8759ZM34.7049 7.44458C34.7049 6.09573 35.6959 5.38672 36.7904 5.38672C37.8849 5.38672 38.8759 6.11302 38.8759 7.44458V15.3907H34.6963V7.44458H34.7049Z" fill="#F34B65"/>
<path d="M44.3661 16.5152C42.2806 16.5152 41.1172 14.9589 41.1172 13.2123V12.901C41.1172 11.1198 42.2547 9.93525 44.3661 9.93525H46.7446V9.26947C46.7446 9.00143 46.6843 8.87173 46.3137 8.87173H42.6081C41.6343 8.87173 41.2206 8.05896 41.2206 7.41912C41.2206 6.73605 41.6515 5.94922 42.6081 5.94922H47.5719C49.6833 5.94922 50.5106 6.90033 50.5106 8.5864V12.5465H45.6674C45.2968 12.5465 45.1331 12.7367 45.1331 13.0048V13.1258C45.1331 13.3938 45.2968 13.5841 45.6674 13.5841H49.8901C50.8381 13.5841 51.2173 14.3968 51.2173 15.054C51.2173 15.7111 50.8898 16.5066 49.8901 16.5066H44.3661V16.5152ZM56.2846 14.3623H55.3108V16.6968H51.7085V8.88903C51.7085 7.7304 52.553 7.12514 53.5096 7.12514C54.4662 7.12514 55.3108 7.74769 55.3108 8.88903V11.1717H56.2846" fill="#F34B65"/>
<path d="M56.007 16.8091V11.6212C56.007 10.0216 56.2138 9.04452 57.179 8.36144C57.9374 7.82536 58.5579 7.38439 58.9198 6.9953C59.4714 6.39004 59.6092 5.94043 59.6092 5.23141C59.6092 4.2803 58.9715 3.67504 58.1959 3.67504C57.4203 3.67504 56.6964 4.1506 56.4896 5.0066C56.2483 6.00095 55.5244 6.56297 54.5678 6.48515C53.775 6.42463 53.0683 5.77614 53.1028 4.49646C53.1717 1.96304 55.4382 0.0175781 58.2045 0.0175781C60.9709 0.0175781 63.1425 1.695 63.1425 5.24871C63.1425 6.64079 62.884 7.63514 62.2635 8.50843C61.7465 9.23474 60.9191 9.96104 60.066 10.6268C59.5834 11.0246 59.4972 11.4396 59.4972 11.9757V16.8264H56.007V16.8091Z" fill="#FFC355"/>
<path fill-rule="evenodd" clip-rule="evenodd" d="M60.2378 21.5993C60.2378 24.03 58.2739 26.0004 55.8513 26.0004C53.4287 26.0004 51.4648 24.03 51.4648 21.5993C51.4648 19.1687 53.4287 17.1982 55.8513 17.1982C58.2739 17.1982 60.2378 19.1687 60.2378 21.5993ZM57.3249 21.5993C57.3249 22.4159 56.6652 23.0778 55.8513 23.0778C55.0374 23.0778 54.3776 22.4159 54.3776 21.5993C54.3776 20.7827 55.0374 20.1207 55.8513 20.1207C56.6652 20.1207 57.3249 20.7827 57.3249 21.5993Z" fill="#FFC355"/>
</g>
<defs>
<clipPath id="clip0_7268_66876">
<rect width="63.1428" height="26" fill="white"/>
</clipPath>
</defs>
</svg>
